# xmcd
# Track frame offsets:
# 150
# 14047
# 28330
# 46290
# 57570
# 77465
# 95282
# 110392
# 123192
# 136615
# 147580
# 159940
# 173080
# 191775
# 204102
# 219370
# 238590
# 258497
#
# Disc length: 3590 seconds
# Revision: 0
# Processed by: cddbd v1.5.2PL0 Copyright (c) Steve Scherf et al.
# Submitted via: VisiTrax 2.10.0.248 - For more info visit www.synapsa.com
#
DISCID=f40e0412
DTITLE=Various Artist - The Winners 3 [CD 2]
DYEAR=1994
DGENRE=Country
TTITLE0=Slim Dusty and Don Walker - Charleville
TTITLE1=Gina Jeffreys - Girls Night Out
TTITLE2=John Williamson - Tropical Fever
TTITLE3=Paul Gibbs - Heart Has Found a Home
TTITLE4=T.C. Cassidy - I'll Meet You In My Dreams
TTITLE5=Shot To Pieces - God's Country
TTITLE6=Reg Poole - The Ghost of 2KM
TTITLE7=Barry Thornton - Boys From The Bush
TTITLE8=Tracey Coster - Someone
TTITLE9=Saunders and Brent Parlaine, Jane - Love Hurts
TTITLE10=Lindsey Butler - Silver Bell
TTITLE11=Hot Diggety - Catfish John
TTITLE12=Shaza Leigh - let Him down Easy
TTITLE13=Rod McCormick and Mick Albeck - Little Rock Getaway
TTITLE14=Bushwackers - Billy of Tea
TTITLE15=Brian Letton - The Brumbies
TTITLE16=Jimmy Little - Yorta Yorta Man
TTITLE17=Saunders Kane and Del - Little Drummer Boy
EXTD=
EXTT0=
EXTT1=
EXTT2=
EXTT3=
EXTT4=
EXTT5=
EXTT6=
EXTT7=
EXTT8=
EXTT9=
EXTT10=
EXTT11=
EXTT12=
EXTT13=
EXTT14=
EXTT15=
EXTT16=
EXTT17=
PLAYORDER=
